<svg xmlns="http://www.w3.org/2000/svg" width="227" height="49" fill="none" xmlns:v="https://vecta.io/nano"><path d="M78.149 48c-13.355 0-16.95-.681-20.062-3.813-3.131-3.151-3.789-6.749-3.789-20.188s.676-17.037 3.789-20.188C61.199.681 64.794 0 78.149 0s16.95.681 20.062 3.813C101.343 6.963 102 10.562 102 24.001s-.657 17.037-3.789 20.188c-3.111 3.131-6.707 3.813-20.062 3.813V48z" fill="url(#A)"/><path d="M81.621 29.664c-.965.668-2.078.965-3.34.965-1.633 0-2.894-.445-3.933-1.41s-1.707-2.301-1.93-4.008h8.535v-3.859h-8.461c.297-1.484.965-2.746 2.004-3.637s2.301-1.336 3.785-1.336a5.75 5.75 0 0 1 3.34 1.039c.891.668 1.633 1.559 2.152 2.746l4.824-1.707c-.742-2.004-2.004-3.562-3.785-4.75C82.957 12.594 80.805 12 78.356 12c-3.414 0-6.16 1.113-8.238 3.191S67 20.09 67 23.504c0 3.488 1.039 6.309 3.117 8.387s4.824 3.117 8.238 3.117c2.449 0 4.601-.52 6.457-1.707 1.781-1.113 3.043-2.672 3.785-4.75l-4.824-1.707c-.519 1.187-1.262 2.152-2.152 2.82z" fill="#fff"/><g fill="#000"><path d="M22.855 40.382a9.11 9.11 0 0 1-3.407-5.594h-5.559V10.607c2.988 1.504 5.142 4.812 5.38 8.241l.837 6.798-.419-.061c-.896 0-1.673.842-1.673 1.684 0 .782.598 1.444 1.376 1.624l1.016.241c1.673-3.187 2.63-6.315 2.63-9.384 0-2.767-.358-5.534-.419-8.361 0-1.264.478-2.405 1.256-3.308.777.903 1.256 2.045 1.256 3.308 0 2.827-.419 5.593-.419 8.361 0 3.067.957 6.196 2.63 9.384l1.016-.241c.777-.18 1.376-.842 1.376-1.624 0-.842-.777-1.684-1.673-1.684l-.418.061.837-6.798c.418-3.429 2.39-6.737 5.379-8.241v24.181h-5.559c-.418 2.286-1.614 4.33-3.407 5.594-.418.301-.777.662-1.016 1.143-.24-.481-.598-.842-1.016-1.143zm-6.337-13.955c.239-.902.896-1.684 1.733-2.165l-.658-5.593a8.87 8.87 0 0 0-2.033-4.572v12.331h.957l.001-.001zm2.809 6.677c0-.842.12-1.624.299-2.405l-.777-.182c-1.136-.361-2.032-1.262-2.331-2.405h-.957v4.992h3.766zm3.707 0c0-1.022-.777-1.925-1.793-2.044-.179.662-.299 1.323-.299 2.044h2.092zm0 1.684H21.18c.299 1.325.957 2.526 1.854 3.55v-3.55zm2.63-5.232c-.717-1.325-1.374-2.708-1.792-4.152-.419 1.444-1.077 2.827-1.793 4.152.717.18 1.315.662 1.793 1.203.478-.541 1.075-1.022 1.792-1.203zm1.136 3.548c0-.723-.12-1.384-.299-2.044-1.016.119-1.793 1.022-1.793 2.044H26.8zm-.238 1.684h-1.854v3.55c.897-1.024 1.555-2.226 1.854-3.55zm5.619-1.684v-4.992h-.957c-.299 1.143-1.195 2.046-2.331 2.405l-.777.182c.179.781.299 1.563.299 2.405h3.766zm0-6.677V14.095c-1.075 1.264-1.854 2.827-2.033 4.572l-.658 5.593c.837.481 1.494 1.264 1.734 2.165h.957v.001zM23.623.973c10.187 0 15.799 0 19.342 3.563s3.542 9.211 3.542 19.463 0 15.9-3.542 19.463-9.153 3.563-19.342 3.563-15.801 0-19.341-3.563S.741 34.252.741 23.999s0-15.898 3.542-19.463S13.436.973 23.623.973zm0-.746c-10.352 0-16.106 0-19.864 3.783S0 13.583 0 23.999s0 16.208 3.759 19.99 9.512 3.783 19.866 3.783 16.106 0 19.866-3.783 3.758-9.573 3.758-19.99 0-16.207-3.758-19.989S33.975.228 23.623.228z"/><path d="M126.273 31.094h-2.25l-2.695 7.172-2.719-7.172h-2.273V40h1.43v-7.219L120.484 40h1.641l2.719-7.219V40h1.429v-8.906zm2.245.89h1.547v-1.406h-1.547v1.406zm.07 8.016h1.406v-7.031h-1.406V40zm11.901 0h1.687l-2.859-4.266 2.742-2.766h-1.758l-2.953 3.094v-3.094h-1.406v3.117l-2.953-3.117h-1.781l2.765 2.789L131.09 40h1.711l2.157-3.305.984.984V40h1.406v-2.344l.961-.961 2.18 3.305zm7.494-7.031v2.812h-3.422v-2.812h-1.406V40h1.406v-2.953h3.422V40h1.406v-7.031h-1.406zm9.088 5.812c-.304 0-.445-.141-.445-.445v-3.164c0-1.453-1.031-2.32-2.719-2.32-1.219 0-2.226.422-3.047 1.195l.868.914c.562-.586 1.312-.937 2.109-.937.891 0 1.476.375 1.476.938 0 .539-.515.633-1.57.773-1.359.211-3.023.586-3.023 2.32 0 1.219.914 2.063 2.297 2.063 1.031 0 1.968-.469 2.461-1.195.093.82.492 1.125 1.359 1.125.234 0 .422-.023.492-.047v-1.219h-.258zm-3.82.188c-.727 0-1.148-.352-1.148-1.008 0-.914.914-1.055 1.804-1.195.68-.117 1.102-.187 1.36-.352v.914c0 .891-.938 1.641-2.016 1.641zm9.135-6.117a2.9 2.9 0 0 0-2.414 1.219l-.094-1.102h-1.219v9.375h1.407v-3.281c.539.68 1.359 1.055 2.32 1.055 1.805 0 3.07-1.477 3.07-3.633 0-2.203-1.219-3.633-3.07-3.633zm-.375 6.07c-1.242 0-2.039-.961-2.039-2.437s.797-2.437 2.039-2.437 2.016.961 2.016 2.438-.774 2.438-2.016 2.438zm7.94 1.195c2.109 0 3.562-1.477 3.562-3.633 0-2.203-1.406-3.633-3.562-3.633-2.11 0-3.563 1.477-3.563 3.633 0 2.203 1.406 3.633 3.563 3.633zm0-1.195c-1.289 0-2.133-.961-2.133-2.437s.844-2.437 2.133-2.437 2.132.961 2.132 2.438-.843 2.438-2.132 2.438zm10.916-.164v-5.789h-5.766v2.93c0 1.383-.07 2.297-.211 2.859h-.82v2.883h1.336V40h5.062v1.641h1.336v-2.883h-.937zm-4.617 0c.14-.703.211-1.664.211-2.789v-1.758h3.023v4.547h-3.234zm11.689-5.789v2.812h-3.421v-2.812h-1.407V40h1.407v-2.953h3.421V40h1.407v-7.031h-1.407zm9.088 5.812c-.304 0-.445-.141-.445-.445v-3.164c0-1.453-1.031-2.32-2.719-2.32-1.218 0-2.226.422-3.046 1.195l.867.914c.562-.586 1.312-.937 2.109-.937.891 0 1.477.375 1.477.938 0 .539-.516.633-1.571.773-1.359.211-3.023.586-3.023 2.32 0 1.219.914 2.063 2.297 2.063 1.031 0 1.969-.469 2.461-1.195.093.82.492 1.125 1.359 1.125.234 0 .422-.023.492-.047v-1.219h-.258zm-3.82.188c-.726 0-1.148-.352-1.148-1.008 0-.914.914-1.055 1.804-1.195.68-.117 1.102-.187 1.36-.352v.914c0 .891-.938 1.641-2.016 1.641z" fill-opacity=".5"/><path d="M131.328 18.953h-1.797V7.156h-12.07v6.602c0 2.227-.117 3.945-.313 5.195h-1.64v6.172h3.281V22h9.258v3.125h3.281v-6.172zm-5.117.078h-5.82a39.92 39.92 0 0 0 .351-5.273v-3.633h5.469v8.906zm7.647 1.524c1.094 1.094 2.578 1.641 4.453 1.641 1.836 0 3.32-.547 4.453-1.641 1.094-1.094 1.68-2.578 1.68-4.414 0-1.797-.586-3.281-1.68-4.375-1.133-1.094-2.617-1.68-4.453-1.68-1.875 0-3.359.586-4.453 1.68-1.133 1.094-1.68 2.578-1.68 4.375 0 1.836.547 3.32 1.68 4.414zm6.601-1.836c-.546.625-1.25.898-2.148.898-.938 0-1.641-.273-2.148-.898-.547-.625-.782-1.484-.782-2.578s.235-1.914.782-2.539c.507-.625 1.21-.937 2.148-.937.898 0 1.602.313 2.148.938.508.625.782 1.445.782 2.539s-.274 1.953-.782 2.578zm16.827-8.438h-10.859V22h3.125v-8.906h4.609V22h3.125V10.281zm3.662 10.274c1.094 1.094 2.579 1.641 4.454 1.641 1.835 0 3.32-.547 4.453-1.641 1.093-1.094 1.679-2.578 1.679-4.414 0-1.797-.586-3.281-1.679-4.375-1.133-1.094-2.618-1.68-4.453-1.68-1.875 0-3.36.586-4.454 1.68-1.132 1.094-1.679 2.578-1.679 4.375 0 1.836.547 3.32 1.679 4.414zm6.602-1.836c-.547.625-1.25.898-2.148.898-.938 0-1.641-.273-2.149-.898-.547-.625-.781-1.484-.781-2.578s.234-1.914.781-2.539c.508-.625 1.211-.937 2.149-.937.898 0 1.601.313 2.148.938.508.625.781 1.445.781 2.539s-.273 1.953-.781 2.578zm20.889-8.438h-4.531l-2.891 8.086-2.929-8.086h-4.571V22h3.008v-8.125l2.93 8.125h3.047l2.929-8.125V22h3.008V10.281zm3.663 10.274c1.093 1.094 2.578 1.641 4.453 1.641 1.836 0 3.32-.547 4.453-1.641 1.094-1.094 1.68-2.578 1.68-4.414 0-1.797-.586-3.281-1.68-4.375-1.133-1.094-2.617-1.68-4.453-1.68-1.875 0-3.36.586-4.453 1.68-1.133 1.094-1.68 2.578-1.68 4.375 0 1.836.547 3.32 1.68 4.414zm6.601-1.836c-.547.625-1.25.898-2.148.898-.938 0-1.641-.273-2.149-.898-.547-.625-.781-1.484-.781-2.578s.234-1.914.781-2.539c.508-.625 1.211-.937 2.149-.937.898 0 1.601.313 2.148.938.508.625.781 1.445.781 2.539s-.273 1.953-.781 2.578zm14.874-8.438h-8.907V22h3.125v-8.828h5.782v-2.891zm12.217 9.024h-.469c-.469 0-.664-.195-.664-.664v-4.609c0-1.211-.43-2.187-1.289-2.891s-2.07-1.055-3.555-1.055c-2.109 0-3.867.664-5.273 1.992l1.875 1.914c.898-.898 1.953-1.367 3.203-1.367.625 0 1.133.117 1.523.352s.586.547.586.898c0 .313-.234.547-.625.703s-.976.274-1.758.352c-1.484.195-2.695.547-3.632 1.055-.938.547-1.407 1.484-1.407 2.813 0 1.016.352 1.836 1.055 2.461s1.602.938 2.773.938c.86 0 1.641-.156 2.344-.508a4.26 4.26 0 0 0 1.719-1.367c.078.625.352 1.055.742 1.328.391.313.977.43 1.719.43.43 0 .82 0 1.133-.078v-2.695zm-4.961-.234c-.547.469-1.211.664-1.992.664-.508 0-.899-.078-1.133-.312-.274-.234-.391-.547-.391-.937 0-.469.195-.82.586-1.016s.977-.352 1.758-.508l1.133-.234c.351-.078.625-.156.859-.312v1.016c0 .664-.273 1.211-.82 1.641z"/></g><defs><linearGradient id="A" x1="57.5" y1="43.5" x2="98" y2="3" gradientUnits="userSpaceOnUse"><stop stop-color="#017c67"/><stop offset=".5" stop-color="#01a270"/><stop offset="1" stop-color="#a0ca6e"/></linearGradient></defs></svg>